<?xml version="1.0" standalone="no"?>
<!DOCTYPE svg PUBLIC "-//W3C//DTD SVG 20010904//EN"
 "http://www.w3.org/TR/2001/REC-SVG-20010904/DTD/svg10.dtd">
<svg version="1.0" xmlns="http://www.w3.org/2000/svg"
 width="1200.000000pt" height="2000.000000pt" viewBox="0 0 1200.000000 2000.000000"
 preserveAspectRatio="xMidYMid meet">

<g transform="translate(0.000000,2000.000000) scale(0.100000,-0.100000)"
fill="#000000" stroke="none">
<path d="M5825 15404 c-470 -36 -820 -113 -1183 -260 -74 -30 -236 -93 -360
-140 -881 -336 -1509 -679 -2017 -1103 -130 -108 -376 -359 -477 -484 -468
-586 -764 -1309 -892 -2177 -78 -529 -72 -1198 15 -1765 148 -964 501 -1838
1033 -2560 254 -345 596 -694 920 -939 109 -82 338 -234 454 -300 1320 -752
3148 -828 4589 -190 558 247 1064 602 1523 1070 521 531 916 1142 1194 1846
618 1567 505 3273 -302 4568 -400 641 -990 1223 -1661 1639 -676 418 -1388
664 -2166 747 -82 8 -184 22 -225 30 -74 14 -348 25 -445 18z m415 -675 c321
-24 662 -83 940 -163 1006 -290 1937 -969 2517 -1836 835 -1249 904 -2963 178
-4465 -464 -962 -1222 -1736 -2120 -2166 -464 -222 -940 -351 -1520 -411 -185
-19 -734 -16 -925 5 -404 45 -760 127 -1104 253 -182 67 -529 236 -684 334
-827 519 -1446 1353 -1790 2410 -345 1058 -355 2262 -29 3225 67 198 124 334
212 510 436 866 1151 1423 2501 1950 89 35 195 74 235 86 41 12 134 46 207 76
73 29 178 66 233 83 171 51 465 104 679 124 60 5 304 -2 470 -15z"/>
<path d="M6495 13904 c-242 -43 -412 -118 -578 -252 -81 -66 -193 -185 -178
-190 6 -2 45 4 87 14 89 19 196 15 259 -11 64 -27 138 -89 205 -170 34 -41 66
-75 72 -75 6 0 46 34 91 76 184 173 392 252 767 291 71 7 100 25 100 61 0 46
-73 101 -240 180 -177 85 -384 112 -585 76z"/>
<path d="M4819 12990 c-143 -18 -294 -72 -402 -143 -167 -112 -531 -518 -684
-762 -31 -49 -107 -189 -168 -310 -160 -317 -206 -495 -207 -795 0 -206 25
-348 104 -590 88 -270 194 -450 567 -970 280 -390 341 -498 399 -709 23 -84
26 -114 25 -241 0 -140 -9 -200 -29 -207 -5 -1 -21 30 -36 70 -56 149 -221
351 -368 450 -41 28 -190 107 -330 175 -320 156 -421 216 -523 308 -45 41 -86
73 -92 71 -21 -7 -114 -264 -146 -402 -26 -115 -38 -402 -19 -470 25 -88 184
-231 430 -386 126 -79 259 -180 311 -235 66 -71 139 -184 221 -341 169 -325
273 -480 410 -608 161 -150 333 -229 563 -260 66 -9 140 -20 165 -26 25 -6 83
-17 129 -25 130 -23 422 -92 456 -109 60 -29 163 -38 374 -32 287 8 452 36
681 116 716 248 1293 714 1643 1327 43 77 205 375 305 564 25 47 60 109 80
138 47 74 144 281 176 376 33 100 65 256 73 355 15 198 -77 498 -231 755 -69
115 -199 292 -224 305 -9 5 -48 14 -87 20 -70 12 -142 30 -225 58 -50 16 -210
92 -252 119 -15 10 -30 15 -33 12 -3 -3 25 -68 63 -145 81 -161 122 -272 162
-438 83 -344 89 -561 19 -768 -21 -61 -127 -318 -135 -326 -13 -14 -11 12 7
69 71 228 64 650 -12 690 -33 18 -57 -4 -64 -58 -24 -176 -116 -416 -239 -622
-12 -19 -29 -51 -39 -71 -73 -144 -343 -437 -512 -557 -192 -136 -424 -219
-664 -238 l-93 -7 253 249 c140 137 325 318 413 404 162 159 353 364 440 474
320 402 415 778 295 1162 -59 188 -204 442 -302 528 -133 118 -303 215 -407
234 -65 11 -127 5 -134 -13 -5 -14 31 -207 62 -330 80 -313 110 -510 118 -775
10 -293 -27 -475 -130 -651 -170 -288 -541 -530 -946 -616 -119 -25 -410 -25
-530 0 -264 55 -484 173 -673 359 -87 87 -139 162 -207 303 -109 225 -172 452
-227 815 -24 161 -24 598 1 795 47 378 120 598 376 1150 228 490 248 535 286
648 35 102 39 123 27 130 -17 10 -202 15 -264 7z"/>
<path d="M5652 12961 c-29 -11 -74 -36 -100 -55 -51 -37 -122 -115 -134 -145
-16 -44 -30 -229 -38 -511 -7 -247 -12 -323 -29 -400 -54 -245 -95 -327 -297
-583 -165 -210 -234 -381 -234 -579 0 -147 42 -274 131 -394 41 -55 126 -124
154 -124 10 0 43 15 74 34 185 111 386 135 571 69 47 -17 135 -54 196 -82 133
-60 173 -70 278 -71 l79 0 -7 48 c-11 81 -61 168 -150 258 -75 75 -141 122
-365 263 -84 53 -185 150 -213 206 -54 105 -75 304 -43 411 20 69 68 137 125
179 74 54 86 47 46 -27 -47 -87 -66 -158 -66 -249 0 -140 70 -234 215 -288
146 -55 294 -5 437 147 78 83 126 166 163 282 40 125 46 322 15 481 -12 63
-28 128 -35 146 -13 30 -113 348 -154 488 -28 97 -51 236 -51 310 0 70 2 68
-90 117 -117 63 -183 81 -310 85 -96 3 -124 0 -168 -16z"/>
<path d="M2853 10788 c-18 -22 -81 -189 -108 -288 -32 -115 -57 -290 -46 -328
5 -15 24 -58 44 -97 146 -290 421 -519 864 -719 219 -99 212 -95 430 -253 53
-39 71 -41 78 -10 15 57 -81 228 -233 421 -285 359 -352 464 -417 651 l-31 90
-101 50 c-193 96 -327 229 -433 430 -38 72 -35 68 -47 53z"/>
<path d="M5553 9944 c-8 -4 -4 -16 12 -39 65 -97 58 -311 -19 -510 -32 -85 -9
-111 49 -56 16 17 95 67 175 112 80 45 168 98 195 117 59 43 165 141 165 154
0 4 -12 8 -27 8 -42 0 -120 41 -193 100 -36 29 -85 62 -110 75 -67 34 -205 56
-247 39z"/>
</g>
</svg>
